<svg
	xmlns="http://www.w3.org/2000/svg"
	width="16"
	height="16"
	fill="#fff"
	viewBox="0 96 960 960"
>
	<path d="M185.816 764q-14.316 0-24.316-9.684-10-9.684-10-24T161.184 706q9.684-10 24-10t24.316 9.684q10 9.684 10 24T209.816 754q-9.684 10-24 10Zm0-154q-14.316 0-24.316-9.684-10-9.684-10-24T161.184 552q9.684-10 24-10t24.316 9.684q10 9.684 10 24T209.816 600q-9.684 10-24 10Zm0-154q-14.316 0-24.316-9.684-10-9.684-10-24T161.184 398q9.684-10 24-10t24.316 9.684q10 9.684 10 24T209.816 446q-9.684 10-24 10ZM291.5 763v-67h517v67h-517Zm0-154v-67h517v67h-517Zm0-153v-67h517v67h-517Z"/>
</svg>